<svg width="210" height="40" viewBox="0 0 210 40" fill="none" xmlns="http://www.w3.org/2000/svg">
<g clip-path="url(#clip0_1148_1776)">
<path d="M201.486 0H103.241C98.6423 0 94.9147 3.73096 94.9147 8.33333V31.6667C94.9147 36.269 98.6423 40 103.241 40H201.486C206.084 40 209.811 36.269 209.811 31.6667V8.33333C209.811 3.73096 206.084 0 201.486 0Z" fill="#FF2D55"/>
<path d="M12.8551 8.33311C14.9199 8.33311 16.7071 8.67756 18.2169 9.36644C19.7489 10.0553 20.9257 11.0331 21.7471 12.2998C22.5685 13.5664 22.9793 15.0664 22.9793 16.7998C22.9793 18.5109 22.5685 20.0109 21.7471 21.2998C20.9257 22.5664 19.7489 23.5443 18.2169 24.2331C16.7071 24.8998 14.9199 25.2331 12.8551 25.2331H8.15931V31.6664H2.76416V8.33311H12.8551ZM12.5554 20.8331C14.1761 20.8331 15.4083 20.4886 16.252 19.7998C17.0958 19.0886 17.5176 18.0886 17.5176 16.7998C17.5176 15.4887 17.0958 14.4887 16.252 13.7998C15.4083 13.0887 14.1761 12.7331 12.5554 12.7331H8.15931V20.8331H12.5554ZM34.9579 31.9331C33.0707 31.9331 31.3723 31.5443 29.8625 30.7664C28.375 29.9664 27.2093 28.8664 26.3656 27.4664C25.5219 26.0664 25.1001 24.4776 25.1001 22.6998C25.1001 20.9219 25.5219 19.3331 26.3656 17.9331C27.2093 16.5331 28.375 15.4442 29.8625 14.6664C31.3723 13.8664 33.0707 13.4664 34.9579 13.4664C36.845 13.4664 38.5325 13.8664 40.02 14.6664C41.5075 15.4442 42.6731 16.5331 43.5168 17.9331C44.3606 19.3331 44.7824 20.9219 44.7824 22.6998C44.7824 24.4776 44.3606 26.0664 43.5168 27.4664C42.6731 28.8664 41.5075 29.9664 40.02 30.7664C38.5325 31.5443 36.845 31.9331 34.9579 31.9331ZM34.9579 27.6664C36.29 27.6664 37.3779 27.2219 38.2216 26.3331C39.0875 25.4219 39.5204 24.2109 39.5204 22.6998C39.5204 21.1886 39.0875 19.9886 38.2216 19.0998C37.3779 18.1886 36.29 17.7331 34.9579 17.7331C33.6257 17.7331 32.5267 18.1886 31.6608 19.0998C30.795 19.9886 30.362 21.1886 30.362 22.6998C30.362 24.2109 30.795 25.4219 31.6608 26.3331C32.5267 27.2219 33.6257 27.6664 34.9579 27.6664ZM54.6826 31.9331C52.6621 31.9331 51.0859 31.3998 49.9536 30.3331C48.8212 29.2443 48.2551 27.7109 48.2551 25.7331V6.93311H53.4504V25.4331C53.4504 26.1886 53.6391 26.7776 54.0166 27.1998C54.4162 27.5998 54.9712 27.7998 55.6817 27.7998C55.9482 27.7998 56.2146 27.7664 56.481 27.6998C56.7696 27.6331 56.9916 27.5553 57.1471 27.4664L57.3802 31.4998C56.5143 31.7886 55.6151 31.9331 54.6826 31.9331ZM59.9308 13.7331H65.1261V31.6664H59.9308V13.7331ZM62.5284 11.2331C61.5736 11.2331 60.7966 10.9553 60.1972 10.3998C59.5977 9.84422 59.298 9.15532 59.298 8.33311C59.298 7.51089 59.5977 6.82199 60.1972 6.26644C60.7966 5.71089 61.5736 5.43311 62.5284 5.43311C63.4831 5.43311 64.2602 5.69977 64.8597 6.23311C65.4591 6.76644 65.7588 7.43311 65.7588 8.23311C65.7588 9.09977 65.4591 9.82199 64.8597 10.3998C64.2602 10.9553 63.4831 11.2331 62.5284 11.2331ZM80.738 30.7998C80.2273 31.1776 79.5946 31.4664 78.8398 31.6664C78.1071 31.8443 77.3411 31.9331 76.5418 31.9331C74.3883 31.9331 72.7341 31.3886 71.5796 30.2998C70.4252 29.2109 69.8478 27.6109 69.8478 25.4998V9.76644H75.0432V14.1331H79.4725V18.1331H75.0432V25.4331C75.0432 26.1886 75.2318 26.7776 75.6093 27.1998C75.9868 27.5998 76.5307 27.7998 77.2412 27.7998C78.0405 27.7998 78.751 27.5776 79.3726 27.1331L80.738 30.7998ZM83.6724 13.7331H88.8677V31.6664H83.6724V13.7331ZM86.2701 11.2331C85.3154 11.2331 84.5383 10.9553 83.9388 10.3998C83.3394 9.84422 83.0396 9.15532 83.0396 8.33311C83.0396 7.51089 83.3394 6.82199 83.9388 6.26644C84.5383 5.71089 85.3154 5.43311 86.2701 5.43311C87.2247 5.43311 88.0018 5.69977 88.6013 6.23311C89.2008 6.76644 89.5005 7.43311 89.5005 8.23311C89.5005 9.09977 89.2008 9.82199 88.6013 10.3998C88.0018 10.9553 87.2247 11.2331 86.2701 11.2331ZM127.532 19.9998C127.532 21.9998 127.111 23.8331 126.267 25.4998C125.423 27.1443 124.235 28.5219 122.703 29.6331C121.194 30.7443 119.451 31.4776 117.475 31.8331V36.1664H112.046V31.8331C110.092 31.4776 108.35 30.7443 106.818 29.6331C105.308 28.5219 104.131 27.1331 103.288 25.4664C102.444 23.7998 102.022 21.9776 102.022 19.9998C102.022 17.7109 102.566 15.6553 103.654 13.8331C104.764 11.9887 106.285 10.5442 108.216 9.49977C110.17 8.45532 112.357 7.93311 114.777 7.93311C117.197 7.93311 119.373 8.45532 121.305 9.49977C123.236 10.5442 124.757 11.9887 125.867 13.8331C126.977 15.6553 127.532 17.7109 127.532 19.9998ZM117.242 27.0998C118.729 26.6331 119.906 25.7776 120.772 24.5331C121.638 23.2664 122.071 21.7553 122.071 19.9998C122.071 18.5553 121.749 17.2664 121.105 16.1331C120.483 14.9998 119.617 14.122 118.507 13.4998C117.397 12.8553 116.154 12.5331 114.777 12.5331C113.401 12.5331 112.157 12.8553 111.047 13.4998C109.937 14.122 109.06 14.9998 108.416 16.1331C107.795 17.2664 107.484 18.5553 107.484 19.9998C107.484 21.7553 107.906 23.2553 108.749 24.4998C109.615 25.7443 110.781 26.6109 112.246 27.0998V22.2998H117.242V27.0998ZM149.271 13.7331V31.6664H144.342V29.5331C143.654 30.3109 142.833 30.9109 141.878 31.3331C140.923 31.7331 139.891 31.9331 138.781 31.9331C136.427 31.9331 134.562 31.2553 133.186 29.8998C131.809 28.5443 131.121 26.5331 131.121 23.8664V13.7331H136.316V23.0998C136.316 25.9886 137.526 27.4331 139.946 27.4331C141.19 27.4331 142.189 27.0331 142.944 26.2331C143.698 25.4109 144.076 24.1998 144.076 22.5998V13.7331H149.271ZM154.084 13.7331H159.28V31.6664H154.084V13.7331ZM156.682 11.2331C155.727 11.2331 154.95 10.9553 154.351 10.3998C153.751 9.84422 153.452 9.15532 153.452 8.33311C153.452 7.51089 153.751 6.82199 154.351 6.26644C154.95 5.71089 155.727 5.43311 156.682 5.43311C157.637 5.43311 158.414 5.69977 159.013 6.23311C159.613 6.76644 159.913 7.43311 159.913 8.23311C159.913 9.09977 159.613 9.82199 159.013 10.3998C158.414 10.9553 157.637 11.2331 156.682 11.2331ZM173.126 27.7664C174.058 27.7664 174.881 27.6331 175.59 27.3664C176.323 27.0776 177.001 26.6331 177.622 26.0331L180.386 29.0331C178.699 30.9664 176.235 31.9331 172.993 31.9331C170.973 31.9331 169.186 31.5443 167.631 30.7664C166.077 29.9664 164.878 28.8664 164.035 27.4664C163.191 26.0664 162.769 24.4776 162.769 22.6998C162.769 20.9443 163.18 19.3664 164.002 17.9664C164.845 16.5442 165.989 15.4442 167.431 14.6664C168.896 13.8664 170.54 13.4664 172.36 13.4664C174.07 13.4664 175.624 13.8331 177.022 14.5664C178.421 15.2776 179.532 16.322 180.353 17.6998C181.197 19.0553 181.618 20.6664 181.618 22.5331L168.364 25.0998C168.742 25.9886 169.329 26.6553 170.129 27.0998C170.951 27.5443 171.95 27.7664 173.126 27.7664ZM172.36 17.3998C171.051 17.3998 169.985 17.8219 169.163 18.6664C168.342 19.5109 167.909 20.6776 167.864 22.1664L176.59 20.4664C176.346 19.5331 175.847 18.7886 175.091 18.2331C174.337 17.6776 173.426 17.3998 172.36 17.3998ZM173.725 6.63311H179.32L173.292 11.4331H169.229L173.725 6.63311ZM196.002 13.4664C198.222 13.4664 200.008 14.1331 201.364 15.4664C202.739 16.7998 203.429 18.7776 203.429 21.3998V31.6664H198.233V22.1998C198.233 20.7776 197.922 19.7219 197.301 19.0331C196.678 18.3219 195.779 17.9664 194.603 17.9664C193.293 17.9664 192.249 18.3776 191.473 19.1998C190.695 19.9998 190.307 21.1998 190.307 22.7998V31.6664H185.112V13.7331H190.074V15.8331C190.762 15.0776 191.616 14.4998 192.638 14.0998C193.659 13.6776 194.78 13.4664 196.002 13.4664Z" fill="white"/>
</g>
<defs>
<clipPath id="clip0_1148_1776">
<rect width="209.811" height="40" fill="white"/>
</clipPath>
</defs>
</svg>
