<svg width="228" height="44" viewBox="0 0 228 44" fill="none" xmlns="http://www.w3.org/2000/svg">
<rect x="103" width="124" height="44" rx="8" fill="#FF2D55"/>
<path d="M13.896 9.8C16.128 9.8 18.06 10.172 19.692 10.916C21.348 11.66 22.62 12.716 23.508 14.084C24.396 15.452 24.84 17.072 24.84 18.944C24.84 20.792 24.396 22.412 23.508 23.804C22.62 25.172 21.348 26.228 19.692 26.972C18.06 27.692 16.128 28.052 13.896 28.052H8.82V35H2.988V9.8H13.896ZM13.572 23.3C15.324 23.3 16.656 22.928 17.568 22.184C18.48 21.416 18.936 20.336 18.936 18.944C18.936 17.528 18.48 16.448 17.568 15.704C16.656 14.936 15.324 14.552 13.572 14.552H8.82V23.3H13.572ZM37.7885 35.288C35.7485 35.288 33.9125 34.868 32.2805 34.028C30.6725 33.164 29.4125 31.976 28.5005 30.464C27.5885 28.952 27.1325 27.236 27.1325 25.316C27.1325 23.396 27.5885 21.68 28.5005 20.168C29.4125 18.656 30.6725 17.48 32.2805 16.64C33.9125 15.776 35.7485 15.344 37.7885 15.344C39.8285 15.344 41.6525 15.776 43.2605 16.64C44.8685 17.48 46.1285 18.656 47.0405 20.168C47.9525 21.68 48.4085 23.396 48.4085 25.316C48.4085 27.236 47.9525 28.952 47.0405 30.464C46.1285 31.976 44.8685 33.164 43.2605 34.028C41.6525 34.868 39.8285 35.288 37.7885 35.288ZM37.7885 30.68C39.2285 30.68 40.4045 30.2 41.3165 29.24C42.2525 28.256 42.7205 26.948 42.7205 25.316C42.7205 23.684 42.2525 22.388 41.3165 21.428C40.4045 20.444 39.2285 19.952 37.7885 19.952C36.3485 19.952 35.1605 20.444 34.2245 21.428C33.2885 22.388 32.8205 23.684 32.8205 25.316C32.8205 26.948 33.2885 28.256 34.2245 29.24C35.1605 30.2 36.3485 30.68 37.7885 30.68ZM59.1103 35.288C56.9263 35.288 55.2223 34.712 53.9983 33.56C52.7743 32.384 52.1623 30.728 52.1623 28.592V8.288H57.7783V28.268C57.7783 29.084 57.9823 29.72 58.3903 30.176C58.8223 30.608 59.4223 30.824 60.1903 30.824C60.4783 30.824 60.7663 30.788 61.0543 30.716C61.3663 30.644 61.6063 30.56 61.7743 30.464L62.0263 34.82C61.0903 35.132 60.1183 35.288 59.1103 35.288ZM64.7834 15.632H70.3994V35H64.7834V15.632ZM67.5914 12.932C66.5594 12.932 65.7194 12.632 65.0714 12.032C64.4234 11.432 64.0994 10.688 64.0994 9.8C64.0994 8.912 64.4234 8.168 65.0714 7.568C65.7194 6.968 66.5594 6.668 67.5914 6.668C68.6234 6.668 69.4634 6.956 70.1114 7.532C70.7594 8.108 71.0834 8.828 71.0834 9.692C71.0834 10.628 70.7594 11.408 70.1114 12.032C69.4634 12.632 68.6234 12.932 67.5914 12.932ZM87.2755 34.064C86.7235 34.472 86.0395 34.784 85.2235 35C84.4315 35.192 83.6035 35.288 82.7395 35.288C80.4115 35.288 78.6235 34.7 77.3755 33.524C76.1275 32.348 75.5035 30.62 75.5035 28.34V11.348H81.1195V16.064H85.9075V20.384H81.1195V28.268C81.1195 29.084 81.3235 29.72 81.7315 30.176C82.1395 30.608 82.7275 30.824 83.4955 30.824C84.3595 30.824 85.1275 30.584 85.7995 30.104L87.2755 34.064ZM90.4475 15.632H96.0635V35H90.4475V15.632ZM93.2555 12.932C92.2235 12.932 91.3835 12.632 90.7355 12.032C90.0875 11.432 89.7635 10.688 89.7635 9.8C89.7635 8.912 90.0875 8.168 90.7355 7.568C91.3835 6.968 92.2235 6.668 93.2555 6.668C94.2875 6.668 95.1275 6.956 95.7755 7.532C96.4235 8.108 96.7475 8.828 96.7475 9.692C96.7475 10.628 96.4235 11.408 95.7755 12.032C95.1275 12.632 94.2875 12.932 93.2555 12.932Z" fill="#282122"/>
<path d="M137.859 22.4C137.859 24.56 137.403 26.54 136.491 28.34C135.579 30.116 134.295 31.604 132.639 32.804C131.007 34.004 129.123 34.796 126.987 35.18V39.86H121.119V35.18C119.007 34.796 117.123 34.004 115.467 32.804C113.835 31.604 112.563 30.104 111.651 28.304C110.739 26.504 110.283 24.536 110.283 22.4C110.283 19.928 110.871 17.708 112.047 15.74C113.247 13.748 114.891 12.188 116.979 11.06C119.091 9.932 121.455 9.368 124.071 9.368C126.687 9.368 129.039 9.932 131.127 11.06C133.215 12.188 134.859 13.748 136.059 15.74C137.259 17.708 137.859 19.928 137.859 22.4ZM126.735 30.068C128.343 29.564 129.615 28.64 130.551 27.296C131.487 25.928 131.955 24.296 131.955 22.4C131.955 20.84 131.607 19.448 130.911 18.224C130.239 17 129.303 16.052 128.103 15.38C126.903 14.684 125.559 14.336 124.071 14.336C122.583 14.336 121.239 14.684 120.039 15.38C118.839 16.052 117.891 17 117.195 18.224C116.523 19.448 116.187 20.84 116.187 22.4C116.187 24.296 116.643 25.916 117.555 27.26C118.491 28.604 119.751 29.54 121.335 30.068V24.884H126.735V30.068ZM161.358 15.632V35H156.03V32.696C155.286 33.536 154.398 34.184 153.366 34.64C152.334 35.072 151.218 35.288 150.018 35.288C147.474 35.288 145.458 34.556 143.97 33.092C142.482 31.628 141.738 29.456 141.738 26.576V15.632H147.354V25.748C147.354 28.868 148.662 30.428 151.278 30.428C152.622 30.428 153.702 29.996 154.518 29.132C155.334 28.244 155.742 26.936 155.742 25.208V15.632H161.358ZM166.561 15.632H172.177V35H166.561V15.632ZM169.369 12.932C168.337 12.932 167.497 12.632 166.849 12.032C166.201 11.432 165.877 10.688 165.877 9.8C165.877 8.912 166.201 8.168 166.849 7.568C167.497 6.968 168.337 6.668 169.369 6.668C170.401 6.668 171.241 6.956 171.889 7.532C172.537 8.108 172.861 8.828 172.861 9.692C172.861 10.628 172.537 11.408 171.889 12.032C171.241 12.632 170.401 12.932 169.369 12.932ZM187.145 30.788C188.153 30.788 189.041 30.644 189.809 30.356C190.601 30.044 191.333 29.564 192.005 28.916L194.993 32.156C193.169 34.244 190.505 35.288 187.001 35.288C184.817 35.288 182.885 34.868 181.205 34.028C179.525 33.164 178.229 31.976 177.317 30.464C176.405 28.952 175.949 27.236 175.949 25.316C175.949 23.42 176.393 21.716 177.281 20.204C178.193 18.668 179.429 17.48 180.989 16.64C182.573 15.776 184.349 15.344 186.317 15.344C188.165 15.344 189.845 15.74 191.357 16.532C192.869 17.3 194.069 18.428 194.957 19.916C195.869 21.38 196.325 23.12 196.325 25.136L181.997 27.908C182.405 28.868 183.041 29.588 183.905 30.068C184.793 30.548 185.873 30.788 187.145 30.788ZM186.317 19.592C184.901 19.592 183.749 20.048 182.861 20.96C181.973 21.872 181.505 23.132 181.457 24.74L190.889 22.904C190.625 21.896 190.085 21.092 189.269 20.492C188.453 19.892 187.469 19.592 186.317 19.592ZM187.793 7.964H193.841L187.325 13.148H182.933L187.793 7.964ZM211.872 15.344C214.272 15.344 216.204 16.064 217.668 17.504C219.156 18.944 219.9 21.08 219.9 23.912V35H214.284V24.776C214.284 23.24 213.948 22.1 213.276 21.356C212.604 20.588 211.632 20.204 210.36 20.204C208.944 20.204 207.816 20.648 206.976 21.536C206.136 22.4 205.716 23.696 205.716 25.424V35H200.1V15.632H205.464V17.9C206.208 17.084 207.132 16.46 208.236 16.028C209.34 15.572 210.552 15.344 211.872 15.344Z" fill="white"/>
</svg>
